<svg width="180" height="50" viewBox="0 0 180 50" fill="none" xmlns="http://www.w3.org/2000/svg">
<path d="M52.58 11.452C55.548 13.216 57.032 15.344 57.032 17.836C57.032 19.796 55.94 21.896 53.756 24.136C52.496 25.452 50.998 26.586 49.262 27.538C47.554 28.49 45.86 29.176 44.18 29.596C41.268 30.296 38.636 30.646 36.284 30.646C35.78 30.646 35.276 30.632 34.772 30.604C32.728 33.6 30.628 36.148 28.472 38.248C25.308 41.216 21.822 42.7 18.014 42.7C14.374 42.7 12.134 41.706 11.294 39.718C11.098 39.242 11 38.696 11 38.08C11 37.436 11.322 36.75 11.966 36.022C12.974 34.874 14.388 34.3 16.208 34.3C17.384 34.3 18.616 34.51 19.904 34.93C20.38 35.098 20.548 35.28 20.408 35.476C20.296 35.588 19.932 35.532 19.316 35.308C18.7 35.084 17.93 34.972 17.006 34.972C16.11 34.972 15.312 35.322 14.612 36.022C13.94 36.694 13.604 37.422 13.604 38.206C13.604 38.514 13.66 38.822 13.772 39.13C14.22 40.642 15.494 41.398 17.594 41.398C20.73 41.398 23.81 39.942 26.834 37.03C28.99 34.93 31.412 31.15 34.1 25.69C35.136 23.646 36.424 21.378 37.964 18.886C39.504 16.366 41.072 14.21 42.668 12.418C42.864 12.222 43.116 11.97 43.424 11.662C44.012 10.99 44.502 10.458 44.894 10.066C42.878 9.786 40.722 9.646 38.426 9.646C36.13 9.646 33.96 9.842 31.916 10.234C29.872 10.598 28.094 11.046 26.582 11.578C25.07 12.082 23.53 12.754 21.962 13.594C20.422 14.406 19.12 15.442 18.056 16.702C16.656 18.298 15.956 19.964 15.956 21.7C15.956 22.764 16.334 23.758 17.09 24.682C17.902 25.662 18.938 26.152 20.198 26.152C21.486 26.152 22.718 25.662 23.894 24.682C25.098 23.702 25.952 22.498 26.456 21.07C26.484 20.874 26.54 20.748 26.624 20.692C26.736 20.608 26.834 20.608 26.918 20.692C27.002 20.776 27.044 20.916 27.044 21.112C27.016 22.932 26.302 24.374 24.902 25.438C23.53 26.474 22.004 26.992 20.324 26.992C18.42 26.992 16.866 26.432 15.662 25.312C14.458 24.192 13.856 22.75 13.856 20.986C13.856 19.362 14.29 17.906 15.158 16.618C16.026 15.302 17.062 14.238 18.266 13.426C19.47 12.614 20.856 11.886 22.424 11.242C25.084 10.178 27.87 9.436 30.782 9.016C33.722 8.568 36.452 8.344 38.972 8.344C41.52 8.344 43.872 8.568 46.028 9.016C47.036 8.232 47.918 7.7 48.674 7.42C49.43 7.14 49.85 7 49.934 7C50.046 7 50.116 7.014 50.144 7.042C50.312 7.042 50.34 7.14 50.228 7.336C50.144 7.504 49.822 7.77 49.262 8.134C48.73 8.498 48.212 8.932 47.708 9.436C49.5 9.912 51.124 10.584 52.58 11.452ZM35.948 29.722C37.992 29.722 40.204 29.372 42.584 28.672C44.992 27.944 47.12 26.894 48.968 25.522C52.552 22.806 54.344 20.006 54.344 17.122C54.344 13.846 51.866 11.62 46.91 10.444C45.342 12.628 43.312 15.946 40.82 20.398C38.328 24.85 36.508 27.958 35.36 29.722C35.556 29.722 35.752 29.722 35.948 29.722Z" fill="black"/>
<path d="M56.4712 41.146C56.0792 41.482 55.6452 41.65 55.1692 41.65C54.6932 41.65 54.3292 41.496 54.0772 41.188C53.8252 40.908 53.6992 40.656 53.6992 40.432C53.6992 39.676 53.9232 39.116 54.3712 38.752C54.8192 38.388 55.2812 38.206 55.7572 38.206C56.2332 38.206 56.5972 38.36 56.8492 38.668C57.1012 38.948 57.2272 39.2 57.2272 39.424C57.2272 39.648 57.1992 39.914 57.1432 40.222C57.0872 40.502 56.8632 40.81 56.4712 41.146Z" fill="black"/>
<path d="M109.551 11.452C112.519 13.216 114.003 15.344 114.003 17.836C114.003 19.796 112.911 21.896 110.727 24.136C109.467 25.452 107.969 26.586 106.233 27.538C104.525 28.49 102.831 29.176 101.151 29.596C98.2387 30.296 95.6067 30.646 93.2547 30.646C92.7507 30.646 92.2467 30.632 91.7427 30.604C89.6987 33.6 87.5987 36.148 85.4427 38.248C82.2787 41.216 78.7927 42.7 74.9847 42.7C71.3447 42.7 69.1047 41.706 68.2647 39.718C68.0687 39.242 67.9707 38.696 67.9707 38.08C67.9707 37.436 68.2927 36.75 68.9367 36.022C69.9447 34.874 71.3587 34.3 73.1787 34.3C74.3547 34.3 75.5867 34.51 76.8747 34.93C77.3507 35.098 77.5187 35.28 77.3787 35.476C77.2667 35.588 76.9027 35.532 76.2867 35.308C75.6707 35.084 74.9007 34.972 73.9767 34.972C73.0807 34.972 72.2827 35.322 71.5827 36.022C70.9107 36.694 70.5747 37.422 70.5747 38.206C70.5747 38.514 70.6307 38.822 70.7427 39.13C71.1907 40.642 72.4647 41.398 74.5647 41.398C77.7007 41.398 80.7807 39.942 83.8047 37.03C85.9607 34.93 88.3827 31.15 91.0707 25.69C92.1067 23.646 93.3947 21.378 94.9347 18.886C96.4747 16.366 98.0427 14.21 99.6387 12.418C99.8347 12.222 100.087 11.97 100.395 11.662C100.983 10.99 101.473 10.458 101.865 10.066C99.8487 9.786 97.6927 9.646 95.3967 9.646C93.1007 9.646 90.9307 9.842 88.8867 10.234C86.8427 10.598 85.0647 11.046 83.5527 11.578C82.0407 12.082 80.5007 12.754 78.9327 13.594C77.3927 14.406 76.0907 15.442 75.0267 16.702C73.6267 18.298 72.9267 19.964 72.9267 21.7C72.9267 22.764 73.3047 23.758 74.0607 24.682C74.8727 25.662 75.9087 26.152 77.1687 26.152C78.4567 26.152 79.6887 25.662 80.8647 24.682C82.0687 23.702 82.9227 22.498 83.4267 21.07C83.4547 20.874 83.5107 20.748 83.5947 20.692C83.7067 20.608 83.8047 20.608 83.8887 20.692C83.9727 20.776 84.0147 20.916 84.0147 21.112C83.9867 22.932 83.2727 24.374 81.8727 25.438C80.5007 26.474 78.9747 26.992 77.2947 26.992C75.3907 26.992 73.8367 26.432 72.6327 25.312C71.4287 24.192 70.8267 22.75 70.8267 20.986C70.8267 19.362 71.2607 17.906 72.1287 16.618C72.9967 15.302 74.0327 14.238 75.2367 13.426C76.4407 12.614 77.8267 11.886 79.3947 11.242C82.0547 10.178 84.8407 9.436 87.7527 9.016C90.6927 8.568 93.4227 8.344 95.9427 8.344C98.4907 8.344 100.843 8.568 102.999 9.016C104.007 8.232 104.889 7.7 105.645 7.42C106.401 7.14 106.821 7 106.905 7C107.017 7 107.087 7.014 107.115 7.042C107.283 7.042 107.311 7.14 107.199 7.336C107.115 7.504 106.793 7.77 106.233 8.134C105.701 8.498 105.183 8.932 104.679 9.436C106.471 9.912 108.095 10.584 109.551 11.452ZM92.9187 29.722C94.9627 29.722 97.1747 29.372 99.5547 28.672C101.963 27.944 104.091 26.894 105.939 25.522C109.523 22.806 111.315 20.006 111.315 17.122C111.315 13.846 108.837 11.62 103.881 10.444C102.313 12.628 100.283 15.946 97.7907 20.398C95.2987 24.85 93.4787 27.958 92.3307 29.722C92.5267 29.722 92.7227 29.722 92.9187 29.722Z" fill="black"/>
<path d="M119.292 29.68C118.788 30.184 118.074 31.332 117.15 33.124C116.226 34.888 115.666 36.218 115.47 37.114C115.302 37.982 115.218 38.696 115.218 39.256C115.218 39.788 115.428 40.054 115.848 40.054C116.38 40.054 117.038 39.564 117.822 38.584C118.97 37.156 120.104 35.294 121.224 32.998C121.336 32.746 121.462 32.606 121.602 32.578C121.826 32.494 121.938 32.578 121.938 32.83C121.938 32.97 121.896 33.138 121.812 33.334C119.236 38.542 117.066 41.146 115.302 41.146C114.49 41.146 113.832 40.754 113.328 39.97C113.076 39.55 112.95 38.99 112.95 38.29C112.95 37.59 113.09 36.736 113.37 35.728C111.13 39.34 109.198 41.146 107.574 41.146C107.126 41.146 106.72 41.006 106.356 40.726C105.516 40.138 105.096 39.13 105.096 37.702C105.096 34.958 106.286 32.172 108.666 29.344C110.01 27.776 111.662 26.754 113.622 26.278C114.154 26.138 114.658 26.068 115.134 26.068C116.422 26.068 117.514 26.516 118.41 27.412C118.69 27.72 118.774 28.014 118.662 28.294C118.55 28.574 118.312 28.686 117.948 28.63C117.64 27.622 116.968 27.118 115.932 27.118C114.728 27.118 113.244 28.07 111.48 29.974C110.472 31.094 109.534 32.41 108.666 33.922C107.574 35.742 107.028 37.198 107.028 38.29C107.028 39.382 107.378 39.928 108.078 39.928C109.758 39.928 111.956 37.352 114.672 32.2C115.204 31.164 115.652 30.464 116.016 30.1C116.38 29.708 116.842 29.512 117.402 29.512C117.514 29.512 117.794 29.554 118.242 29.638C118.718 29.722 119.068 29.736 119.292 29.68Z" fill="black"/>
<path d="M126.878 24.22C126.878 25.48 126.08 26.67 124.484 27.79C125.044 27.818 125.786 27.832 126.71 27.832C127.662 27.832 128.852 27.762 130.28 27.622C130.336 27.706 130.364 27.93 130.364 28.294C130.364 28.658 130.196 29.204 129.86 29.932C129.524 30.632 129.216 31.248 128.936 31.78C128.684 32.284 128.432 32.774 128.18 33.25C127.956 33.698 127.69 34.258 127.382 34.93C127.102 35.602 126.864 36.218 126.668 36.778C125.968 38.906 126.08 39.97 127.004 39.97C128.18 39.97 129.916 37.632 132.212 32.956C132.408 32.592 132.562 32.452 132.674 32.536C132.814 32.62 132.884 32.732 132.884 32.872C132.884 32.984 132.702 33.418 132.338 34.174C131.974 34.902 131.582 35.658 131.162 36.442C130.742 37.226 130.084 38.136 129.188 39.172C128.124 40.46 127.102 41.104 126.122 41.104C125.03 41.104 124.274 40.446 123.854 39.13C123.77 38.878 123.728 38.5 123.728 37.996C123.728 37.492 123.882 36.82 124.19 35.98C124.526 35.14 125.044 34.118 125.744 32.914C126.444 31.71 126.836 31.01 126.92 30.814C127.004 30.59 127.046 30.38 127.046 30.184C127.046 29.316 125.926 28.854 123.686 28.798L123.182 30.142C121.418 34.762 119.724 37.856 118.1 39.424C117.82 39.676 117.68 39.592 117.68 39.172C117.68 39.088 117.708 38.99 117.764 38.878C119.332 36.806 120.69 34.356 121.838 31.528C122.986 28.7 123.784 26.012 124.232 23.464C124.4 22.596 124.792 22.162 125.408 22.162C126.024 22.162 126.472 22.554 126.752 23.338C126.836 23.59 126.878 23.884 126.878 24.22Z" fill="black"/>
<path d="M142.954 29.722C142.954 28.966 142.576 28.588 141.82 28.588C140.7 28.588 139.398 29.232 137.914 30.52C136.458 31.78 135.24 33.11 134.26 34.51C133.84 35.322 133.49 36.344 133.21 37.576C132.958 38.808 132.832 39.662 132.832 40.138C132.832 40.614 132.916 40.922 133.084 41.062H130.438C130.018 41.062 129.906 40.698 130.102 39.97C130.326 39.214 130.62 38.402 130.984 37.534C131.348 36.666 131.796 35.672 132.328 34.552C132.888 33.404 133.294 32.536 133.546 31.948C131.25 36.288 129.766 38.78 129.094 39.424C128.814 39.676 128.674 39.592 128.674 39.172C128.674 39.088 128.702 38.99 128.758 38.878C129.738 37.59 131.684 34.09 134.596 28.378C137.536 22.666 139.594 18.928 140.77 17.164C141.722 15.792 142.646 15.106 143.542 15.106C143.542 15.106 143.556 15.106 143.584 15.106H143.794C143.822 15.106 144.06 15.148 144.508 15.232C144.984 15.316 145.334 15.33 145.558 15.274C144.522 16.058 143.094 17.864 141.274 20.692C139.454 23.492 138.012 25.956 136.948 28.084C135.884 30.184 135.17 31.78 134.806 32.872C137.354 29.708 139.636 27.748 141.652 26.992C142.604 26.684 143.36 26.53 143.92 26.53C145.152 26.53 145.768 27.048 145.768 28.084C145.768 28.42 145.698 28.798 145.558 29.218C145.166 30.282 144.354 31.248 143.122 32.116C141.918 32.956 140.588 33.446 139.132 33.586C138.796 34.37 138.628 35.098 138.628 35.77C138.628 36.414 138.698 37.002 138.838 37.534C139.174 38.878 139.804 39.704 140.728 40.012C140.924 40.068 141.12 40.096 141.316 40.096C142.1 40.096 143.024 39.606 144.088 38.626C144.956 37.674 146.09 35.756 147.49 32.872C147.686 32.508 147.84 32.396 147.952 32.536C148.064 32.648 148.12 32.76 148.12 32.872C148.12 32.984 147.91 33.53 147.49 34.51C147.07 35.49 146.482 36.568 145.726 37.744C144.13 40.152 142.366 41.356 140.434 41.356C139.258 41.356 138.348 41.02 137.704 40.348C136.78 39.396 136.318 38.15 136.318 36.61C136.318 35.826 136.528 35.028 136.948 34.216C137.368 33.404 137.858 32.97 138.418 32.914C138.502 32.914 138.586 32.914 138.67 32.914C139.65 32.914 140.602 32.536 141.526 31.78C142.478 31.024 142.954 30.338 142.954 29.722Z" fill="black"/>
<path d="M149.224 34.594C148.832 35.546 148.636 36.61 148.636 37.786C148.636 38.57 148.804 39.2 149.14 39.676C149.504 40.124 150.008 40.348 150.652 40.348C153.2 40.348 155.51 37.954 157.582 33.166C157.778 32.718 158.016 32.522 158.296 32.578C158.408 32.606 158.464 32.676 158.464 32.788C158.464 32.9 158.142 33.642 157.498 35.014C156.882 36.358 156.252 37.45 155.608 38.29C154.18 40.25 152.416 41.23 150.316 41.23C149.196 41.23 148.244 40.866 147.46 40.138C146.676 39.41 146.284 38.416 146.284 37.156C146.284 35.896 146.578 34.566 147.166 33.166C147.782 31.738 148.608 30.422 149.644 29.218C150.68 27.986 151.87 27.09 153.214 26.53C153.858 26.25 154.474 26.11 155.062 26.11C155.65 26.11 156.196 26.278 156.7 26.614C157.176 27.006 157.414 27.44 157.414 27.916C157.414 29.596 156.406 31.206 154.39 32.746C153.774 33.222 152.906 33.656 151.786 34.048C150.666 34.412 149.812 34.594 149.224 34.594ZM156.28 27.874C156.28 27.314 156.056 27.034 155.608 27.034C154.824 27.034 153.634 28 152.038 29.932C151.086 31.108 150.246 32.424 149.518 33.88C149.994 33.88 150.68 33.712 151.576 33.376C152.5 33.04 153.298 32.592 153.97 32.032C155.51 30.716 156.28 29.33 156.28 27.874Z" fill="black"/>
<path d="M163.382 24.22C163.382 25.48 162.584 26.67 160.988 27.79C161.548 27.818 162.29 27.832 163.214 27.832C164.166 27.832 165.356 27.762 166.784 27.622C166.84 27.706 166.868 27.93 166.868 28.294C166.868 28.658 166.7 29.204 166.364 29.932C166.028 30.632 165.72 31.248 165.44 31.78C165.188 32.284 164.936 32.774 164.684 33.25C164.46 33.698 164.194 34.258 163.886 34.93C163.606 35.602 163.368 36.218 163.172 36.778C162.472 38.906 162.584 39.97 163.508 39.97C164.684 39.97 166.42 37.632 168.716 32.956C168.912 32.592 169.066 32.452 169.178 32.536C169.318 32.62 169.388 32.732 169.388 32.872C169.388 32.984 169.206 33.418 168.842 34.174C168.478 34.902 168.086 35.658 167.666 36.442C167.246 37.226 166.588 38.136 165.692 39.172C164.628 40.46 163.606 41.104 162.626 41.104C161.534 41.104 160.778 40.446 160.358 39.13C160.274 38.878 160.232 38.5 160.232 37.996C160.232 37.492 160.386 36.82 160.694 35.98C161.03 35.14 161.548 34.118 162.248 32.914C162.948 31.71 163.34 31.01 163.424 30.814C163.508 30.59 163.55 30.38 163.55 30.184C163.55 29.316 162.43 28.854 160.19 28.798L159.686 30.142C157.922 34.762 156.228 37.856 154.604 39.424C154.324 39.676 154.184 39.592 154.184 39.172C154.184 39.088 154.212 38.99 154.268 38.878C155.836 36.806 157.194 34.356 158.342 31.528C159.49 28.7 160.288 26.012 160.736 23.464C160.904 22.596 161.296 22.162 161.912 22.162C162.528 22.162 162.976 22.554 163.256 23.338C163.34 23.59 163.382 23.884 163.382 24.22Z" fill="black"/>
</svg>
